<mxfile host="drawio-plugin" modified="2023-05-05T16:07:00.673Z" agent="5.0 (Windows NT 6.2; Win64; x64) AppleWebKit/537.36 (KHTML, like Gecko) Chrome/104.0.5112.102 Safari/537.36" version="20.5.3" etag="5YSa8jiZKo_pF5-4MFNl" type="embed"><diagram id="duONpv_0X4GnxWEl5wDT" name="Page-1"><mxGraphModel dx="693" dy="643" grid="1" gridSize="10" guides="1" tooltips="1" connect="1" arrows="1" fold="1" page="1" pageScale="1" pageWidth="850" pageHeight="1100" math="0" shadow="0"><root><mxCell id="0"/><mxCell id="1" parent="0"/><mxCell id="2" value="Core" style="ellipse;whiteSpace=wrap;html=1;aspect=fixed;" vertex="1" parent="1"><mxGeometry x="80" y="470" width="80" height="80" as="geometry"/></mxCell><mxCell id="4" style="edgeStyle=orthogonalEdgeStyle;rounded=0;orthogonalLoop=1;jettySize=auto;html=1;" edge="1" parent="1" source="3" target="2"><mxGeometry relative="1" as="geometry"/></mxCell><mxCell id="3" value="Domain" style="whiteSpace=wrap;html=1;aspect=fixed;" vertex="1" parent="1"><mxGeometry x="230" y="440" width="140" height="140" as="geometry"/></mxCell><mxCell id="6" style="edgeStyle=orthogonalEdgeStyle;rounded=0;orthogonalLoop=1;jettySize=auto;html=1;" edge="1" parent="1" source="5" target="3"><mxGeometry relative="1" as="geometry"/></mxCell><mxCell id="5" value="Application" style="rhombus;whiteSpace=wrap;html=1;" vertex="1" parent="1"><mxGeometry x="460" y="435" width="150" height="150" as="geometry"/></mxCell><mxCell id="11" style="edgeStyle=orthogonalEdgeStyle;rounded=0;orthogonalLoop=1;jettySize=auto;html=1;" edge="1" parent="1" source="7" target="3"><mxGeometry relative="1" as="geometry"/></mxCell><mxCell id="7" value="Infrastructure: DB" style="ellipse;shape=cloud;whiteSpace=wrap;html=1;" vertex="1" parent="1"><mxGeometry x="240" y="280" width="120" height="80" as="geometry"/></mxCell><mxCell id="10" style="edgeStyle=orthogonalEdgeStyle;rounded=0;orthogonalLoop=1;jettySize=auto;html=1;" edge="1" parent="1" source="9" target="3"><mxGeometry relative="1" as="geometry"/></mxCell><mxCell id="9" value="Infrastructure: Email" style="ellipse;shape=cloud;whiteSpace=wrap;html=1;" vertex="1" parent="1"><mxGeometry x="240" y="660" width="120" height="80" as="geometry"/></mxCell><mxCell id="14" style="edgeStyle=orthogonalEdgeStyle;rounded=0;orthogonalLoop=1;jettySize=auto;html=1;entryX=0.5;entryY=0;entryDx=0;entryDy=0;" edge="1" parent="1" source="12" target="5"><mxGeometry relative="1" as="geometry"/></mxCell><mxCell id="12" value="Infrastructure: caching" style="ellipse;shape=cloud;whiteSpace=wrap;html=1;" vertex="1" parent="1"><mxGeometry x="475" y="280" width="120" height="80" as="geometry"/></mxCell><mxCell id="15" style="edgeStyle=orthogonalEdgeStyle;rounded=0;orthogonalLoop=1;jettySize=auto;html=1;" edge="1" parent="1" source="13" target="5"><mxGeometry relative="1" as="geometry"/></mxCell><mxCell id="13" value="Infrastructure: ..." style="ellipse;shape=cloud;whiteSpace=wrap;html=1;" vertex="1" parent="1"><mxGeometry x="475" y="660" width="120" height="80" as="geometry"/></mxCell><mxCell id="18" style="edgeStyle=orthogonalEdgeStyle;rounded=0;orthogonalLoop=1;jettySize=auto;html=1;" edge="1" parent="1" source="17" target="5"><mxGeometry relative="1" as="geometry"/></mxCell><mxCell id="17" value="API" style="shape=or;whiteSpace=wrap;html=1;" vertex="1" parent="1"><mxGeometry x="690" y="456.66999999999996" width="80" height="106.67" as="geometry"/></mxCell><mxCell id="19" value="Architecture Abstraction" style="text;html=1;strokeColor=none;fillColor=none;align=left;verticalAlign=middle;whiteSpace=wrap;rounded=0;strokeWidth=1;fontSize=30;" vertex="1" parent="1"><mxGeometry x="80" y="200" width="330" height="40" as="geometry"/></mxCell></root></mxGraphModel></diagram></mxfile>